<?xml version="1.0" encoding="UTF-8"?>
<svg version="1.1" xmlns="http://www.w3.org/2000/svg" width="1024" height="1024">
<path d="M0 0 C337.92 0 675.84 0 1024 0 C1024 337.92 1024 675.84 1024 1024 C686.08 1024 348.16 1024 0 1024 C0 686.08 0 348.16 0 0 Z " fill="#1E1E1E" transform="translate(0,0)"/>
<path d="M0 0 C2.44321734 2.44321734 2.49053974 3.69020925 3.05322266 7.06054688 C3.23325836 8.11504028 3.41329407 9.16953369 3.5987854 10.25598145 C3.87859756 11.97005188 3.87859756 11.97005188 4.1640625 13.71875 C4.36099701 14.88756714 4.55793152 16.05638428 4.76083374 17.26062012 C5.38975985 21.00586339 6.00727673 24.75289447 6.625 28.5 C7.04877762 31.02746148 7.47324797 33.55480691 7.8984375 36.08203125 C8.6714605 40.70051517 9.44433269 45.31901022 10.20556641 49.93945312 C10.35941803 50.8705188 10.51326965 51.80158447 10.67178345 52.76086426 C11 55 11 55 11 57 C6.88473708 56.35826346 3.69611565 54.13013842 0.25 51.9375 C-0.35199219 51.56044922 -0.95398438 51.18339844 -1.57421875 50.79492188 C-3.05249143 49.86806837 -4.52666089 48.93467611 -6 48 C-8.40861289 51.61291933 -9.73686132 55.4049285 -11.2109375 59.45703125 C-11.53057465 60.32565796 -11.85021179 61.19428467 -12.17953491 62.0892334 C-13.24823516 64.99570005 -14.31151072 67.90412302 -15.375 70.8125 C-16.13529232 72.88257088 -16.89604421 74.95247302 -17.65722656 77.0222168 C-18.8611959 80.29616277 -20.06484463 83.57022331 -21.26708984 86.84480286 C-25.32473152 97.89576323 -29.41663466 108.93392546 -33.51077271 119.97140503 C-39.18679114 135.27458364 -44.85136068 150.58183973 -50.48046875 165.90234375 C-59.82537633 191.33158508 -69.19906734 216.74235945 -79 242 C-78.05616455 242.14622803 -77.1123291 242.29245605 -76.13989258 242.44311523 C-67.84901956 243.91356709 -60.47700622 249.825039 -55 256 C-45.65993081 269.38254242 -42.71745439 282.85991303 -44 299 C-44.66 300.65 -45.32 302.3 -46 304 C-72.07 304 -98.14 304 -125 304 C-120.13784694 318.58645919 -117.13117167 326.31683137 -103.78125 333.1328125 C-92.14442924 336.76114706 -76.6974528 334.41171939 -66.07861328 329.02539062 C-62.91407007 327.31246558 -59.82757177 325.49859482 -56.765625 323.609375 C-54 322 -54 322 -52 322 C-52 329.59 -52 337.18 -52 345 C-71.06536407 354.40209735 -92.30929639 358.52535097 -113 352 C-127.67468069 346.18371947 -137.53796039 337.75604552 -144.1796875 323.4609375 C-150.49836585 308.56361554 -151.91918672 290.05049335 -146.1875 274.74609375 C-145.795625 273.83988281 -145.40375 272.93367188 -145 272 C-144.649375 271.12472656 -144.29875 270.24945313 -143.9375 269.34765625 C-138.18575225 256.38625246 -127.47609633 247.72485721 -114.80859375 242.078125 C-112 241 -112 241 -108.50247192 240.29188538 C-104.87320922 239.34196611 -104.87320922 239.34196611 -103.31246948 236.48558044 C-102.92946686 235.41840286 -102.54646423 234.35122528 -102.15185547 233.25170898 C-101.4722879 231.42240089 -101.4722879 231.42240089 -100.7789917 229.55613708 C-100.30790027 228.2029598 -99.83731455 226.84960638 -99.3671875 225.49609375 C-98.85442474 224.08534 -98.33916924 222.67549011 -97.82159424 221.26649475 C-96.43121649 217.46103312 -95.07465479 213.64428734 -93.72354889 209.82473755 C-92.29950748 205.81845676 -90.84364124 201.8237896 -89.39013672 197.828125 C-87.02766207 191.32394062 -84.68110488 184.8142438 -82.34570312 178.30029297 C-78.10822389 166.48803276 -73.75748717 154.71861656 -69.40078735 142.94985962 C-67.27961123 137.21398221 -65.16977953 131.47393519 -63.05859375 125.734375 C-58.21354217 112.57076584 -53.35426381 99.41243779 -48.48553467 86.25756836 C-47.63902045 83.97010519 -46.79285316 81.6825136 -45.94708252 79.39477539 C-40.71073693 65.23237558 -35.40335258 51.09956092 -30 37 C-31.24974609 36.85054932 -32.49949219 36.70109863 -33.78710938 36.54711914 C-37.44435532 36.10976798 -40.93231916 35.36996204 -44.5 34.4375 C-45.5415625 34.16808594 -46.583125 33.89867187 -47.65625 33.62109375 C-48.4296875 33.41613281 -49.203125 33.21117187 -50 33 C-45.80050657 28.33009489 -41.04956535 25.34203949 -35.6875 22.125 C-33.82248108 20.98899607 -31.95791708 19.852245 -30.09375 18.71484375 C-29.11148438 18.11784668 -28.12921875 17.52084961 -27.1171875 16.90576172 C-21.61451486 13.54158075 -16.15283913 10.11187336 -10.6875 6.6875 C-8.62894698 5.39967448 -6.57035681 4.11190833 -4.51171875 2.82421875 C-3.00777094 1.8828789 -1.50384753 0.94150005 0 0 Z " fill="#FDFDFD" transform="translate(978,218)"/>
<path d="M0 0 C5.61 0 11.22 0 17 0 C17.33 22.77 17.66 45.54 18 69 C20.31 66.36 22.62 63.72 25 61 C34.70340507 51.84024921 45.46100567 48.66264186 58.58203125 48.78125 C71.06193413 49.57996378 81.54613354 54.90307506 90 64 C100.93730141 78.84174825 103.99754112 96.26640621 101.71142578 114.27294922 C99.22889458 128.80492047 92.78603488 142.06426654 80.5859375 150.7109375 C69.07337627 158.01767141 56.0912807 161.01595219 42.578125 158.31640625 C31.81727656 155.27255123 24.57810066 150.06180921 17 142 C16.67 146.95 16.34 151.9 16 157 C10.72 157 5.44 157 0 157 C0 105.19 0 53.38 0 0 Z " fill="#FCFCFC" transform="translate(179,412)"/>
<path d="M0 0 C4.21105139 3.28667425 7.64151651 6.77987079 11.10742188 10.83642578 C20.42585274 21.48915209 30.81763054 31.34165107 42 40 C43.10186349 40.91055836 44.20062498 41.82487863 45.296875 42.7421875 C60.55864157 55.42067993 77.4077869 65.87192991 95 75 C95.78358887 75.40814941 96.56717773 75.81629883 97.37451172 76.23681641 C149.0097836 102.78470042 210.33976056 114.24041558 268 106 C268.88026855 105.87641113 269.76053711 105.75282227 270.66748047 105.62548828 C338.17253537 95.79465504 409.59211058 60.26739802 451.4765625 4.86328125 C453 3 453 3 455 2 C462.08571429 1.42857143 462.08571429 1.42857143 465.5 3.5625 C467.56506168 6.91822524 467.35220995 9.1049723 467 13 C465.41796875 15.66796875 465.41796875 15.66796875 463.1875 18.1875 C461.94613281 19.60675781 461.94613281 19.60675781 460.6796875 21.0546875 C459.79539062 22.02664063 458.91109375 22.99859375 458 24 C457.15695312 24.95132813 456.31390625 25.90265625 455.4453125 26.8828125 C445.0737775 38.4238381 434.29008478 49.49126397 422 59 C420.99582031 59.79792969 419.99164062 60.59585938 418.95703125 61.41796875 C355.043769 111.88201661 272.94996721 134.15293585 192.17211914 124.87353516 C186.41345764 124.07818942 180.70655524 123.10640804 175 122 C173.93555664 121.80164551 172.87111328 121.60329102 171.77441406 121.39892578 C146.56156511 116.56921668 121.04434242 108.35535288 98 97 C96.64465508 96.34870058 95.28918471 95.69766217 93.93359375 95.046875 C80.05760567 88.30919922 66.65632191 80.83460902 54 72 C53.45134277 71.62262695 52.90268555 71.24525391 52.33740234 70.85644531 C43.43623527 64.72826657 35.13967551 58.10291467 27 51 C26.29617188 50.39671875 25.59234375 49.7934375 24.8671875 49.171875 C22.89156004 47.46903293 20.94255766 45.74050331 19 44 C18.02546875 43.12988281 17.0509375 42.25976562 16.046875 41.36328125 C8.71602752 34.74831099 1.88017561 27.81305869 -4.70019531 20.45263672 C-5.89370861 19.11878921 -7.09865935 17.79519898 -8.3046875 16.47265625 C-13 11.25878514 -13 11.25878514 -13 9 C-10.86229382 7.37322909 -8.7324466 5.86020356 -6.5 4.375 C-5.87996094 3.95476563 -5.25992187 3.53453125 -4.62109375 3.1015625 C-3.08482736 2.06162833 -1.54292476 1.03002944 0 0 Z " fill="#FCFCFC" transform="translate(386,580)"/>
<path d="M0 0 C11.85558218 9.12717423 19.77808062 20.99675389 22 36 C23.09686657 54.1640242 21.3253051 71.2642053 9.3125 85.8125 C-1.47526769 97.13350336 -15.26822901 101.78569733 -30.5625 102.3125 C-44.99269881 102.17448535 -57.55607088 96.7464399 -68.12109375 87.03515625 C-81.20088393 72.86764963 -82.78019314 56.04204858 -82.18359375 37.70556641 C-81.8193396 32.33766155 -80.35214663 27.79714116 -78 23 C-77.649375 22.22140625 -77.29875 21.4428125 -76.9375 20.640625 C-70.20310919 7.07831018 -58.57693971 -1.44373711 -44.5078125 -6.2734375 C-29.90372551 -10.50452812 -12.77037592 -8.41958538 0 0 Z " fill="#FCFCFC" transform="translate(375,469)"/>
<path d="M0 0 C9.06585286 8.32667061 15.5131657 20.63026716 16.45678711 32.94970703 C16.55434268 35.96962219 16.5790403 38.97855935 16.5625 42 C16.55686035 43.06822998 16.5512207 44.13645996 16.54541016 45.23706055 C16.30018348 61.13187678 11.70679597 73.37522866 0.6640625 85.02734375 C-9.92614429 94.77787395 -23.73800346 98.66049053 -37.8515625 98.52734375 C-48.50039589 97.76976141 -58.14623231 94.5655316 -66.75 88.25 C-67.45640625 87.73695313 -68.1628125 87.22390625 -68.890625 86.6953125 C-79.46526194 78.25981967 -85.36088729 65.25116882 -87.4375 52.10546875 C-89.19785037 36.02026724 -85.93702343 20.7199128 -75.93359375 7.81640625 C-56.44175897 -15.09260171 -23.84296278 -18.74513555 0 0 Z " fill="#FCFCFC" transform="translate(144.75,472.75)"/>
<path d="M0 0 C8.58 0 17.16 0 26 0 C26 43.89 26 87.78 26 133 C44.81 133 63.62 133 83 133 C83 140.59 83 148.18 83 156 C55.61 156 28.22 156 0 156 C0 104.52 0 53.04 0 0 Z " fill="#FEFDFE" transform="translate(619,413)"/>
<path d="M0 0 C0 6.6 0 13.2 0 20 C-3.1865625 20.1546875 -3.1865625 20.1546875 -6.4375 20.3125 C-17.67574946 21.12789166 -17.67574946 21.12789166 -26.5 27.5 C-29.26589791 31.00347069 -30.10867143 34.02743481 -30.31640625 38.44921875 C-30.35451416 39.21322998 -30.39262207 39.97724121 -30.43188477 40.7644043 C-30.47498779 41.72902588 -30.51809082 42.69364746 -30.5625 43.6875 C-30.706875 46.760625 -30.85125 49.83375 -31 53 C-23.08 53 -15.16 53 -7 53 C-7 59.27 -7 65.54 -7 72 C-14.92 72 -22.84 72 -31 72 C-31 101.37 -31 130.74 -31 161 C-38.92 161 -46.84 161 -55 161 C-55 131.63 -55 102.26 -55 72 C-61.6 72 -68.2 72 -75 72 C-75 65.73 -75 59.46 -75 53 C-68.4 53 -61.8 53 -55 53 C-55.04640625 51.47890625 -55.0928125 49.9578125 -55.140625 48.390625 C-55.69877144 22.55611402 -55.69877144 22.55611402 -46.6796875 11.7421875 C-33.50668887 -1.92096922 -17.71138173 -0.49350599 0 0 Z " fill="#FEFEFE" transform="translate(828,408)"/>
<path d="M0 0 C8.75177847 7.075906 15.46768978 15.97943434 16.9375 27.375 C17.80940693 40.89720575 16.23896761 52.36898186 7.9375 63.375 C1.31879053 70.66395853 -6.78375016 74.68340539 -16.5703125 75.61328125 C-26.35197426 75.89067166 -33.84814475 73.61627727 -41.375 67.25 C-50.60455788 58.26949369 -54.92100183 47.78752393 -55.5 34.9375 C-55.0921273 23.14318123 -50.41978773 13.03433081 -42.3359375 4.56640625 C-30.29139515 -6.46067476 -14.21202729 -7.54107571 0 0 Z " fill="#1D1D1D" transform="translate(364.0625,480.625)"/>
<path d="M0 0 C11.14928455 6.80813945 16.30228245 15.47133613 19.55078125 27.87109375 C21.95850383 39.53430903 19.79241561 51.25975515 13.578125 61.43359375 C8.45621523 69.13953007 1.87919656 74.47402376 -7.22265625 76.765625 C-17.53020343 78.50163295 -26.69333047 77.66248497 -35.4296875 71.47265625 C-45.27904874 63.12949418 -50.88170934 53.06151443 -52.00390625 40.15625 C-52.35968802 27.52599732 -48.69974397 16.46903194 -40.03515625 7.140625 C-29.51283612 -2.88158486 -13.36352439 -6.31487675 0 0 Z " fill="#1D1D1D" transform="translate(125.72265625,478.609375)"/>
<path d="M0 0 C9.34663472 9.99872552 13.51236867 22.80407109 13.07421875 36.38671875 C11.86275441 47.31437185 7.45572457 58.88482616 -0.3125 66.875 C-8.4546751 73.12279879 -17.13648871 75.03554649 -27.3125 73.875 C-36.99499496 71.1722604 -43.97170724 66.38405965 -49.3125 57.875 C-55.57305642 46.33593522 -57.24588376 33.89389533 -53.6875 21.1875 C-49.95401769 10.26118989 -43.40796225 1.86502596 -33.0625 -3.5 C-21.94899064 -8.78121312 -10.0883248 -6.47175553 0 0 Z " fill="#1E1D1E" transform="translate(251.3125,482.125)"/>
<path d="M0 0 C0 10.56 0 21.12 0 32 C9.9 32 19.8 32 30 32 C30 36.95 30 41.9 30 47 C20.1 47 10.2 47 0 47 C0.06774099 55.05183392 0.13830869 63.1028023 0.2355423 71.15419769 C0.28003713 74.90429103 0.31950551 78.65427692 0.34643555 82.40454102 C0.37261767 86.02279425 0.41312244 89.6406396 0.46318626 93.25863838 C0.47975501 94.63273573 0.49133108 96.00690347 0.49761391 97.38108635 C0.31555813 110.5112783 0.31555813 110.5112783 6.5 121.5 C10.88536882 124.13122129 14.9856817 124.63833868 20 124 C24.15286103 122.66623441 28.10136705 120.94931648 32 119 C32 124.28 32 129.56 32 135 C23.03501362 139.71041657 14.60182156 141.57119716 4.4296875 139.46875 C-3.34071157 137.0454391 -9.48183679 132.81734685 -14 126 C-17.10691346 119.08771967 -18.12842877 111.98495869 -18.11352539 104.44384766 C-18.11344986 103.16297272 -18.11337433 101.88209778 -18.11329651 100.56240845 C-18.10819105 99.17962606 -18.10297508 97.79684408 -18.09765625 96.4140625 C-18.09578917 94.98774261 -18.09436664 93.56142208 -18.09336853 92.13510132 C-18.08956615 88.39673058 -18.07975552 84.65839922 -18.06866455 80.92004395 C-18.05840124 77.09904513 -18.0538604 73.2780399 -18.04882812 69.45703125 C-18.03813103 61.97133421 -18.02055289 54.48567766 -18 47 C-23.28 47 -28.56 47 -34 47 C-34 42.05 -34 37.1 -34 32 C-28.72 32 -23.44 32 -18 32 C-18 23.09 -18 14.18 -18 5 C-15.215625 4.175 -12.43125 3.35 -9.5625 2.5 C-8.68408447 2.23896484 -7.80566895 1.97792969 -6.90063477 1.70898438 C-1.11111111 0 -1.11111111 0 0 0 Z " fill="#FAFAFA" transform="translate(435,431)"/>
<path d="M0 0 C1.01481445 0.00016113 2.02962891 0.00032227 3.07519531 0.00048828 C12.22141721 0.13871467 21.14936578 1.18291052 28.9375 6.375 C29.1583564 9.32564148 29.21810989 12.05868231 29.125 15 C29.10469727 16.20269531 29.10469727 16.20269531 29.08398438 17.4296875 C29.04859051 19.41174378 28.99478234 21.39345551 28.9375 23.375 C24.11778526 21.79208927 19.36899645 20.0620164 14.62109375 18.27734375 C5.20096903 15.10987823 -5.22481352 15.08257504 -14.4296875 18.93359375 C-24.8580675 24.64289972 -30.3707644 33.29979319 -34.0625 44.375 C-35.23856244 58.28660208 -34.91469186 71.36621953 -25.7578125 82.59375 C-19.18067759 89.50428807 -12.08053475 93.3409038 -2.50341797 93.82763672 C9.05679382 94.09266639 18.30077269 90.83630141 27.9375 84.375 C28.5975 84.375 29.2575 84.375 29.9375 84.375 C29.9375 89.985 29.9375 95.595 29.9375 101.375 C15.03641149 109.37743642 -1.78659646 112.08023351 -18.2578125 107.33984375 C-31.85469113 102.66236601 -41.72981811 93.86378492 -48.2421875 81.0546875 C-51.48946062 74.06238406 -53.45411259 67.08124048 -54.0625 59.375 C-54.14371094 58.37726562 -54.14371094 58.37726562 -54.2265625 57.359375 C-54.85614906 41.90588678 -49.07794134 26.92994787 -39.0625 15.375 C-28.13292057 4.71730065 -15.09033695 -0.02227173 0 0 Z " fill="#FCFCFC" transform="translate(570.0625,461.625)"/>
<path d="M0 0 C8.58 0 17.16 0 26 0 C26 35.97 26 71.94 26 109 C17.42 109 8.84 109 0 109 C0 73.03 0 37.06 0 0 Z " fill="#FAFAFA" transform="translate(714,460)"/>
<path d="M0 0 C1.07217773 0.00773437 1.07217773 0.00773437 2.16601562 0.015625 C7.37588071 0.09419035 7.37588071 0.09419035 9.6875 1.25 C9.57380789 3.70933991 9.44707349 6.1667909 9.3125 8.625 C9.26609375 9.67300781 9.26609375 9.67300781 9.21875 10.7421875 C8.9140625 16.0234375 8.9140625 16.0234375 6.6875 18.25 C5.6975 17.92 4.7075 17.59 3.6875 17.25 C-5.00883408 16.13303966 -11.43047431 18.50774685 -18.3203125 23.7890625 C-25.77889499 30.60188028 -29.82246871 40.28782962 -30.52601624 50.28355408 C-30.63889704 53.90844574 -30.69360737 57.52974902 -30.7265625 61.15625 C-30.74530442 62.4900427 -30.76488001 63.82382391 -30.7852478 65.15759277 C-30.83625622 68.64267157 -30.87604774 72.12778868 -30.91339111 75.61303711 C-30.95362874 79.17961865 -31.0046302 82.74604516 -31.0546875 86.3125 C-31.15107544 93.29155915 -31.23460049 100.27071022 -31.3125 107.25 C-36.5925 107.25 -41.8725 107.25 -47.3125 107.25 C-47.3125 72.27 -47.3125 37.29 -47.3125 1.25 C-42.0325 1.25 -36.7525 1.25 -31.3125 1.25 C-30.9825 7.52 -30.6525 13.79 -30.3125 20.25 C-29.3225 18.744375 -28.3325 17.23875 -27.3125 15.6875 C-20.30979679 5.71994261 -12.53562175 -0.37177006 0 0 Z " fill="#FCFCFC" transform="translate(47.3125,461.75)"/>
<path d="M0 0 C5.94 0 11.88 0 18 0 C18 34.98 18 69.96 18 106 C12.06 106 6.12 106 0 106 C0 71.02 0 36.04 0 0 Z " fill="#FBFBFB" transform="translate(483,463)"/>
<path d="M0 0 C5.29259977 4.49161245 9.06882417 10.31885131 11 17 C11 18.65 11 20.3 11 22 C-7.48 22 -25.96 22 -45 22 C-40.86156122 10.61929334 -37.76495152 3.32381179 -27.11328125 -2.125 C-18.23848964 -5.79959024 -8.18810363 -4.96036995 0 0 Z " fill="#1B1B1B" transform="translate(899,481)"/>
<path d="M0 0 C3.91271318 1.78474636 5.47414901 3.22875187 7.875 6.75 C9.690011 11.99336512 9.71919472 16.03167761 7.8125 21.25 C5.18561967 25.23561154 2.53058408 27.48980531 -2 29 C-7.24894167 29.39614654 -10.55342094 28.86557317 -15 26 C-19.35055624 21.29669595 -20.35621669 17.52832313 -20.28515625 11.28515625 C-19.74554864 6.96090352 -17.33501473 4.23209509 -14.2265625 1.36328125 C-9.91905896 -1.27412004 -4.86691404 -0.57985991 0 0 Z " fill="#FBFBFB" transform="translate(732,415)"/>
<path d="M0 0 C3.58552881 1.63687185 4.79315055 2.68972583 7 6 C7.54679399 9.71819916 7.5490121 13.28193784 7 17 C4.7984026 19.89683868 3.21405538 21.39297231 0 23 C-4.50728651 23.54016597 -7.94994123 23.60322525 -11.9375 21.3125 C-14.62117548 18.30353053 -15.92507613 16.16838489 -16.06640625 12.078125 C-15.8132602 7.99710378 -15.25017796 6.30149652 -12.5625 3.0625 C-8.47493146 -0.22749419 -5.15415181 -0.56388993 0 0 Z " fill="#FBFBFB" transform="translate(496,423)"/>
<path d="M0 0 C5.94 0 11.88 0 18 0 C18 0.33 18 0.66 18 1 C12.39 1 6.78 1 1 1 C1 52.81 1 104.62 1 158 C6.28 158 11.56 158 17 158 C17 152.39 17 146.78 17 141 C18.65 142.65 20.3 144.3 22 146 C23.424553 147.28532967 24.86093429 148.55775676 26.3125 149.8125 C27.00988281 150.41707031 27.70726562 151.02164063 28.42578125 151.64453125 C28.94527344 152.09183594 29.46476562 152.53914062 30 153 C29.34 153.33 28.68 153.66 28 154 C25.36 151.69 22.72 149.38 20 147 C19.34 150.96 18.68 154.92 18 159 C12.06 159 6.12 159 0 159 C-1.38526361 156.22947277 -1.12595661 153.99009284 -1.12698364 150.8885498 C-1.12980347 149.58449692 -1.13262329 148.28044403 -1.13552856 146.93687439 C-1.13358408 145.48330675 -1.13153589 144.02973924 -1.12939453 142.57617188 C-1.1307489 141.0520473 -1.13252904 139.52792306 -1.13470459 138.00379944 C-1.13927465 133.85721349 -1.13749111 129.71065233 -1.1343255 125.56406593 C-1.13179971 121.23147132 -1.13414006 116.89887887 -1.13571167 112.56628418 C-1.13753272 105.28946551 -1.13512874 98.01265698 -1.13037109 90.73583984 C-1.1249286 82.31410964 -1.1266913 73.89240365 -1.1321975 65.47067404 C-1.13673046 58.2494287 -1.13737828 51.02819067 -1.13475883 43.80694437 C-1.13319707 39.48985809 -1.13299955 35.17278319 -1.13629532 30.85569763 C-1.13917668 26.79773763 -1.13719344 22.73980895 -1.13140106 18.68185234 C-1.13007489 17.18946319 -1.13046517 15.69707142 -1.13266373 14.2046833 C-1.13538077 12.17360654 -1.13137554 10.14252403 -1.12698364 8.1114502 C-1.12660662 6.97286812 -1.12622959 5.83428604 -1.12584114 4.66120148 C-1 2 -1 2 0 0 Z " fill="#0C0D0D" transform="translate(178,411)"/>
<path d="M0 0 C1.65 1.65 3.3 3.3 5 5 C6.424553 6.28532967 7.86093429 7.55775676 9.3125 8.8125 C10.00988281 9.41707031 10.70726562 10.02164063 11.42578125 10.64453125 C11.94527344 11.09183594 12.46476562 11.53914062 13 12 C12.01 12.495 12.01 12.495 11 13 C8.36 10.69 5.72 8.38 3 6 C2.34 9.96 1.68 13.92 1 18 C-4.61 18 -10.22 18 -16 18 C-16 17.67 -16 17.34 -16 17 C-10.72 17 -5.44 17 0 17 C0 11.39 0 5.78 0 0 Z " fill="#0A0A0A" transform="translate(195,552)"/>
<path d="M0 0 C0.33 0.99 0.66 1.98 1 3 C-0.28965176 4.37562854 -1.62689293 5.70766393 -3 7 C-3.66 7 -4.32 7 -5 7 C-5.33 8.98 -5.66 10.96 -6 13 C-6.33 13 -6.66 13 -7 13 C-6.81523971 8.38099287 -6.20125576 5.78017921 -2.9375 2.5625 C-1.968125 1.716875 -0.99875 0.87125 0 0 Z " fill="#161616" transform="translate(805,431)"/>
<path d="M0 0 C2.97 1.65 5.94 3.3 9 5 C5.37673261 6.2077558 4.35853631 5.54311128 1 4 C0.01 4.99 -0.98 5.98 -2 7 C-1.125 1.125 -1.125 1.125 0 0 Z " fill="#0F0F0F" transform="translate(971,265)"/>
<path d="M0 0 C1.41655793 -0.0272415 2.83327045 -0.04650467 4.25 -0.0625 C5.43335938 -0.07990234 5.43335938 -0.07990234 6.640625 -0.09765625 C8.90691002 -0.00385306 10.8288895 0.36758937 13 1 C12.67 1.66 12.34 2.32 12 3 C7.53160785 3.21278058 4.17737474 2.59138085 0 1 C0 0.67 0 0.34 0 0 Z " fill="#121213" transform="translate(568,477)"/>
</svg>
